# xmcd
#
# Track frame offsets:
#	150
#	15638
#	33628
#	50918
#	72250
#	84859
#	100086
#	120506
#	141252
#	160095
#	180980
#
# Disc length: 2672 seconds
#
# Revision: 0
# Processed by: cddbd v1.4PL0 Copyright (c) Steve Scherf et al.
# Submitted via: EasyCDDAExtractor 4.6.0.1
#
DISCID=890a6e0b
DTITLE=Mana From Nowhere - Opposite You
DYEAR=1900
DGENRE=
TTITLE0=Neither Do I
TTITLE1=Shaman
TTITLE2=Velvet Elvis
TTITLE3=Devil and the Deep Blue Sea
TTITLE4=Speed Queen
TTITLE5=George Washington
TTITLE6=Molybdenum
TTITLE7=New Found Friend
TTITLE8=Grandma's Song
TTITLE9=Minnow
TTITLE10=Sgt. Cummings
EXTD=
EXTT0=
EXTT1=
EXTT2=
EXTT3=
EXTT4=
EXTT5=
EXTT6=
EXTT7=
EXTT8=
EXTT9=
EXTT10=
PLAYORDER=
